<svg width="512" height="266" viewBox="0 0 512 266" fill="none" xmlns="http://www.w3.org/2000/svg">
<circle cx="272" cy="49.5" r="30.5" fill="#25E238"/>
<path fill-rule="evenodd" clip-rule="evenodd" d="M305.311 47.7683C305.436 46.8633 305.501 45.9389 305.501 44.9993C305.501 39.8949 303.589 35.237 300.441 31.7031L317.059 33.8384C317.885 33.9445 318.227 34.9539 317.636 35.5401L305.311 47.7683Z" fill="#25E238"/>
<path fill-rule="evenodd" clip-rule="evenodd" d="M238.902 50.9895C238.777 51.8945 238.712 52.8189 238.712 53.7585C238.712 58.8629 240.624 63.5208 243.771 67.0547L227.154 64.9194C226.328 64.8133 225.986 63.8039 226.577 63.2177L238.902 50.9895Z" fill="#25E238"/>
<path fill-rule="evenodd" clip-rule="evenodd" d="M245.484 32.0865C244.808 32.7011 244.166 33.3693 243.564 34.0907C240.294 38.0099 238.777 42.8113 238.93 47.541L227.539 35.2544C226.973 34.644 227.357 33.6498 228.186 33.5783L245.484 32.0865Z" fill="#25E238"/>
<path fill-rule="evenodd" clip-rule="evenodd" d="M300.476 66.9278C301.101 66.2613 301.687 65.544 302.23 64.7769C305.178 60.6095 306.306 55.7025 305.777 51L318.111 62.3394C318.724 62.9028 318.421 63.9245 317.6 64.0619L300.476 66.9278Z" fill="#25E238"/>
<path fill-rule="evenodd" clip-rule="evenodd" d="M283.889 80.2518C284.792 80.1136 285.697 79.9119 286.597 79.6437C291.489 78.1869 295.408 75.0249 297.896 71L300.593 87.5361C300.727 88.3577 299.857 88.9737 299.126 88.5747L283.889 80.2518Z" fill="#25E238"/>
<path fill-rule="evenodd" clip-rule="evenodd" d="M263.499 81.6175C264.318 82.0232 265.174 82.3776 266.065 82.6753C270.906 84.2928 275.93 83.9551 280.279 82.0898L272.988 97.1747C272.626 97.9241 271.56 97.9288 271.191 97.1826L263.499 81.6175Z" fill="#25E238"/>
<path fill-rule="evenodd" clip-rule="evenodd" d="M246.99 70.7072C247.389 71.5291 247.849 72.3334 248.372 73.1143C251.21 77.3567 255.39 80.1646 259.971 81.3516L244.972 88.8179C244.227 89.1889 243.381 88.5402 243.546 87.7243L246.99 70.7072Z" fill="#25E238"/>
<path fill-rule="evenodd" clip-rule="evenodd" d="M259.901 17.8687C259.007 18.0588 258.116 18.3124 257.232 18.6321C252.432 20.3691 248.703 23.7521 246.451 27.9141L242.804 11.5613C242.623 10.7488 243.456 10.0836 244.208 10.4398L259.901 17.8687Z" fill="#25E238"/>
<path fill-rule="evenodd" clip-rule="evenodd" d="M281.287 16.6727C280.455 16.2951 279.587 15.9699 278.686 15.7026C273.793 14.2501 268.783 14.758 264.5 16.7695L271.276 1.44617C271.612 0.684884 272.677 0.644084 273.071 1.37738L281.287 16.6727Z" fill="#25E238"/>
<path fill-rule="evenodd" clip-rule="evenodd" d="M297.747 28.4035C297.327 27.592 296.846 26.7996 296.304 26.0322C293.359 21.8631 289.11 19.1622 284.5 18.0918L299.305 10.2474C300.04 9.85767 300.902 10.4847 300.758 11.3044L297.747 28.4035Z" fill="#25E238"/>
<path d="M245.5 107.999C243.667 106 234.6 100.3 213 93.4996C209.996 92.554 206.984 92.2098 204 92.3529C185.528 93.2394 168.174 112.807 161 124L167 168.5C169 175.7 172.167 173.833 173.5 172C188.3 156.4 197.667 155.5 200.5 157C199.7 154.6 223.833 163.667 236 168.5C248.4 176.9 262.5 176.333 268 175C314.4 169.4 342.333 126.666 350.5 105.999C355.7 88.3995 344.667 86.9995 338.5 88.4995C334.5 88.8995 315.167 101.666 306 107.999C328 130.399 296.833 139.999 278.5 141.999C258.1 141.599 249.333 143.833 247.5 144.999C240.3 145.799 242.167 141.666 244 139.499C252.8 135.499 274.667 135.166 284.5 135.499C294.1 136.299 301.5 130.833 304 127.999C314 114.799 301.833 112.166 294.5 112.499C270.1 118.099 251.667 111.833 245.5 107.999Z" fill="#25E238"/>
<path d="M34.4373 211.717L21.0852 235.472V250.66H13.4634V235.472L0.166901 211.717H8.84577L17.3021 227.962L25.7584 211.717H34.4373ZM58.1525 250.66L55.8159 243.65H40.2941L37.9575 250.66H29.668L43.2983 211.717H52.8117L66.4976 250.66H58.1525ZM42.742 236.474H53.4236L48.0828 220.562L42.742 236.474ZM82.7061 251.439C78.8489 251.439 75.6036 250.586 72.9702 248.88C70.3369 247.137 68.4824 244.782 67.4068 241.814L73.9716 237.976C75.4923 241.944 78.478 243.928 82.9287 243.928C85.0798 243.928 86.6561 243.539 87.6575 242.76C88.6589 241.981 89.1597 240.998 89.1597 239.812C89.1597 238.439 88.5477 237.382 87.3237 236.64C86.0998 235.862 83.9115 235.027 80.759 234.137C79.0158 233.618 77.5322 233.098 76.3082 232.579C75.1214 232.06 73.916 231.374 72.6921 230.521C71.5052 229.631 70.5965 228.518 69.966 227.183C69.3355 225.847 69.0202 224.29 69.0202 222.509C69.0202 218.986 70.2627 216.186 72.7477 214.109C75.2698 211.995 78.2925 210.938 81.816 210.938C84.9686 210.938 87.7317 211.717 90.1054 213.274C92.5162 214.795 94.3892 216.928 95.7244 219.672L89.2709 223.4C87.7132 220.062 85.2282 218.393 81.816 218.393C80.2212 218.393 78.9601 218.763 78.0329 219.505C77.1428 220.21 76.6977 221.137 76.6977 222.287C76.6977 223.511 77.1984 224.512 78.1998 225.291C79.2383 226.033 81.204 226.849 84.097 227.739C85.2838 228.11 86.174 228.407 86.7674 228.629C87.3979 228.815 88.2324 229.13 89.2709 229.575C90.3465 229.983 91.1625 230.372 91.7188 230.743C92.3122 231.114 92.9798 231.615 93.7216 232.245C94.4634 232.876 95.0197 233.525 95.3906 234.193C95.7986 234.86 96.1324 235.676 96.392 236.64C96.6888 237.568 96.8371 238.588 96.8371 239.7C96.8371 243.298 95.5204 246.154 92.8871 248.268C90.2909 250.382 86.8972 251.439 82.7061 251.439ZM123.715 211.717H131.337V250.66H123.715V234.526H109.25V250.66H101.573V211.717H109.25V227.183H123.715V211.717ZM138.572 211.717H146.249V250.66H138.572V211.717ZM161.135 243.316H175.99V250.66H153.458V211.717H161.135V243.316ZM201.937 243.316H218.349V250.66H194.26V211.717H218.071V219.06H201.937V227.35H216.68V234.582H201.937V243.316ZM246.292 211.717H253.97V250.66H248.128L231.438 226.849V250.66H223.761V211.717H229.602L246.292 235.472V211.717ZM268.872 243.316H285.284V250.66H261.194V211.717H285.005V219.06H268.872V227.35H283.614V234.582H268.872V243.316ZM312.059 250.66L304.214 237.141H298.373V250.66H290.695V211.717H306.273C309.87 211.717 312.93 212.978 315.452 215.5C317.974 218.022 319.235 221.063 319.235 224.624C319.235 227.034 318.549 229.278 317.177 231.355C315.805 233.395 313.987 234.934 311.725 235.973L320.348 250.66H312.059ZM298.373 218.893V230.409H306.273C307.719 230.409 308.962 229.853 310 228.74C311.039 227.591 311.558 226.218 311.558 224.624C311.558 223.029 311.039 221.675 310 220.562C308.962 219.45 307.719 218.893 306.273 218.893H298.373ZM362.654 229.742V232.746C362.654 238.309 360.874 242.816 357.314 246.265C353.753 249.714 349.154 251.439 343.516 251.439C337.508 251.439 332.519 249.492 328.551 245.597C324.619 241.666 322.654 236.882 322.654 231.244C322.654 225.569 324.601 220.766 328.495 216.835C332.427 212.903 337.285 210.938 343.071 210.938C346.706 210.938 350.026 211.772 353.03 213.441C356.034 215.073 358.371 217.261 360.04 220.006L353.475 223.789C352.548 222.194 351.138 220.896 349.247 219.895C347.392 218.893 345.315 218.393 343.016 218.393C339.307 218.393 336.247 219.617 333.836 222.064C331.462 224.475 330.276 227.535 330.276 231.244C330.276 234.916 331.481 237.957 333.892 240.368C336.34 242.742 339.566 243.928 343.572 243.928C346.539 243.928 348.987 243.279 350.916 241.981C352.881 240.646 354.217 238.829 354.921 236.529H343.127V229.742H362.654ZM375.793 243.316H392.205V250.66H368.115V211.717H391.927V219.06H375.793V227.35H390.536V234.582H375.793V243.316ZM423.375 211.717V219.06H412.86V250.66H405.183V219.06H394.723V211.717H423.375ZM427.661 211.717H435.338V250.66H427.661V211.717ZM472.979 250.66H464.133L450.225 232.412V250.66H442.547V211.717H450.225V228.907L463.577 211.717H472.423L458.013 230.632L472.979 250.66ZM502.788 250.66L500.451 243.65H484.93L482.593 250.66H474.304L487.934 211.717H497.447L511.133 250.66H502.788ZM487.378 236.474H498.059L492.718 220.562L487.378 236.474Z" fill="#25E238"/>
</svg>
